<?xml version="1.0" encoding="iso-8859-1"?>
<!-- Generator: Adobe Illustrator 16.0.0, SVG Export Plug-In . SVG Version: 6.00 Build 0)  -->
<!DOCTYPE svg PUBLIC "-//W3C//DTD SVG 1.1//EN" "http://www.w3.org/Graphics/SVG/1.1/DTD/svg11.dtd">
<svg version="1.1" id="Capa_1" xmlns="http://www.w3.org/2000/svg" xmlns:xlink="http://www.w3.org/1999/xlink" x="0px" y="0px"
	 width="346.609px" height="346.609px" viewBox="0 0 346.609 346.609" style="enable-background:new 0 0 346.609 346.609;"
	 xml:space="preserve">
<g>
	<path d="M32.974,340.098c-0.091,0.078-0.173,0.156-0.251,0.236l-1.845,1.847c-0.381,0.143-0.753,0.319-1.097,0.551
		c-7.401,4.882-17.855,3.832-24.168-2.478c-6.401-6.399-7.454-16.535-2.499-24.1c0.221-0.341,0.383-0.699,0.496-1.081L228.05,90.635
		l13.654,13.653l13.224,13.217C162.42,210.332,37.001,336.06,32.974,340.098z"/>
	<path d="M343.942,222.405l-77.04-108.028c-0.174-0.241-0.369-0.467-0.579-0.677l-34.467-34.468c-0.384-0.38-0.818-0.703-1.291-0.95
		l-50.39-26.581l-10.431-15.068l11.093-35.817l12.892,2.575l98.727,83.688l54.153,134.255L343.942,222.405z"/>
</g>
<g>
</g>
<g>
</g>
<g>
</g>
<g>
</g>
<g>
</g>
<g>
</g>
<g>
</g>
<g>
</g>
<g>
</g>
<g>
</g>
<g>
</g>
<g>
</g>
<g>
</g>
<g>
</g>
<g>
</g>
</svg>
